<?xml version="1.0" encoding="UTF-8"?>
<svg id="Layer_1" xmlns="http://www.w3.org/2000/svg" version="1.1" viewBox="0 0 120 120">
  <!-- Generator: Adobe Illustrator 29.0.1, SVG Export Plug-In . SVG Version: 2.1.0 Build 192)  -->
  <defs>
    <style>
      .st0 {
        fill: #ed2f42;
      }
    </style>
  </defs>
  <circle class="st0" cx="60" cy="60" r="41.4"/>
  <path class="st0" d="M60,113c-29.2,0-53-23.8-53-53S30.8,7,60,7s53,23.8,53,53-23.8,53-53,53ZM60,14.1c-25.3,0-45.9,20.6-45.9,45.9s20.6,45.9,45.9,45.9,45.9-20.6,45.9-45.9S85.3,14.1,60,14.1Z"/>
  <path class="st0" d="M60,120C26.9,120,0,93.1,0,60S26.9,0,60,0s60,26.9,60,60-26.9,60-60,60ZM60,2.9C28.5,2.9,2.9,28.5,2.9,60s25.6,57.1,57.1,57.1,57.1-25.6,57.1-57.1S91.5,2.9,60,2.9Z"/>
</svg>